<?xml version="1.0" encoding="utf-8"?>
<!-- Generator: Adobe Illustrator 25.0.0, SVG Export Plug-In . SVG Version: 6.00 Build 0)  -->
<svg version="1.1" id="Layer_1" xmlns="http://www.w3.org/2000/svg" xmlns:xlink="http://www.w3.org/1999/xlink" x="0px" y="0px"
	 viewBox="0 0 285 77" style="enable-background:new 0 0 285 77;" xml:space="preserve">
<style type="text/css">
	.st0{fill:url(#SVGID_1_);}
	.st1{fill:#0B4A80;}
	.st2{fill:#3987D5;}
</style>
<linearGradient id="SVGID_1_" gradientUnits="userSpaceOnUse" x1="26.4453" y1="32.9016" x2="45.7489" y2="52.2052">
	<stop  offset="0.3358" style="stop-color:#1C85E0"/>
	<stop  offset="1" style="stop-color:#0B4A81"/>
</linearGradient>
<path class="st0" d="M70.98,42.01c-19.46,0-35.31,15.46-35.92,34.79h-0.16C34.46,57.77,19.22,42.41,0.24,41.75v-0.07
	c19.17-0.66,34.53-16.35,34.69-35.64h0.1C35.03,25.91,51.11,42.01,70.98,42.01z"/>
<path class="st1" d="M24.7,10.62c-5.75,0-10.43,4.57-10.61,10.27h-0.05c-0.13-5.62-4.63-10.16-10.24-10.35v-0.02
	C9.48,10.33,14.01,5.7,14.06,0h0.03C14.09,5.87,18.84,10.62,24.7,10.62z"/>
<g>
	<path class="st2" d="M77.69,59.77l0.3-0.3h1.82l0.3,0.3c0.12,3.17,0.29,5.12,0.5,5.82c0.21,0.71,0.88,1.45,2.01,2.23
		c1.13,0.78,2.63,1.42,4.5,1.92c1.87,0.5,3.76,0.74,5.67,0.74c2.63,0,4.99-0.48,7.09-1.45c2.1-0.97,3.73-2.39,4.89-4.26
		c1.17-1.87,1.75-3.97,1.75-6.31c0-1.64-0.28-3.06-0.84-4.28c-0.56-1.21-1.34-2.19-2.34-2.92s-2.15-1.28-3.44-1.64
		c-1.29-0.36-3.21-0.75-5.77-1.17c-2.48-0.4-4.42-0.76-5.82-1.08c-1.4-0.32-2.8-0.82-4.19-1.49c-1.39-0.67-2.55-1.52-3.48-2.55
		c-0.93-1.03-1.67-2.29-2.23-3.8c-0.56-1.5-0.84-3.11-0.84-4.82c0-4.64,1.61-8.44,4.84-11.4c3.22-2.96,7.55-4.45,12.98-4.45
		c2.16,0,4.51,0.27,7.05,0.8c2.54,0.53,4.86,1.32,6.94,2.36l0.26,0.45c-0.55,2.28-0.88,5.53-1,9.75l-0.33,0.3h-1.93l-0.3-0.26
		c-0.05-2.98-0.12-4.85-0.22-5.62c-0.1-0.77-1.23-1.72-3.39-2.86c-2.16-1.14-4.5-1.71-7.03-1.71c-2.11,0-4.08,0.42-5.92,1.26
		c-1.84,0.84-3.22,2.17-4.17,3.98c-0.94,1.81-1.41,3.66-1.41,5.54c0,1.46,0.28,2.76,0.86,3.89c0.57,1.13,1.31,2.02,2.21,2.68
		c0.91,0.66,1.96,1.15,3.16,1.47c1.2,0.32,3.4,0.72,6.6,1.19c4.39,0.62,7.58,1.37,9.58,2.25c2,0.88,3.6,2.28,4.8,4.18
		c1.2,1.91,1.8,4.22,1.8,6.92c0,5.28-2.15,9.69-6.46,13.21s-9.52,5.28-15.64,5.28c-5.13,0-9.64-0.92-13.51-2.75l-0.22-0.48
		C77.38,69.15,77.57,65.5,77.69,59.77z"/>
	<path class="st2" d="M116.46,43.37V42.4l0.26-0.37c2.33-0.87,4.22-1.67,5.66-2.42c0-6.47-0.07-10.24-0.22-11.31
		c2.55-0.89,4.65-1.85,6.29-2.86l0.89,0.74c-0.25,1.56-0.55,6.1-0.89,13.62c1.24,0.03,2.58,0.04,4.02,0.04
		c2.93,0,5.02-0.07,6.29-0.22l0.26,0.26l-0.71,3.13l-0.3,0.33c-1.26-0.02-2.67-0.04-4.2-0.04c-1.39,0-3.17,0.01-5.36,0.04
		l-0.22,15.14c0,3.5,0.08,5.79,0.24,6.86c0.16,1.08,0.61,1.92,1.34,2.53c0.73,0.61,1.82,0.91,3.26,0.91c1.66,0,3.2-0.43,4.61-1.3
		l0.89,1.34c-0.6,0.42-2.02,1.66-4.28,3.72c-1.29,0.59-2.6,0.89-3.94,0.89c-5.58,0-8.37-2.7-8.37-8.11c0-1.98,0.05-3.67,0.15-5.06
		c0.02-0.42,0.04-0.85,0.04-1.3V43.51h-1.53c-1.12,0-2.39,0.05-3.83,0.15L116.46,43.37z"/>
	<path class="st2" d="M172.49,67.1l-1.19,2.68c-2.58,1.66-4.88,2.74-6.9,3.24c-2.02,0.5-3.83,0.74-5.41,0.74
		c-2.98,0-5.8-0.58-8.46-1.75c-2.67-1.17-4.84-3.14-6.51-5.92c-1.67-2.78-2.51-6.13-2.51-10.05c0-2.6,0.32-4.95,0.97-7.05
		c0.65-2.1,1.32-3.65,2.03-4.67c0.71-1.02,1.9-2.15,3.59-3.39c1.69-1.24,3.47-2.23,5.36-2.98c1.88-0.74,3.92-1.12,6.1-1.12
		c2.98,0,5.6,0.7,7.87,2.1c2.27,1.4,3.86,3.19,4.78,5.38c0.92,2.18,1.38,4.5,1.38,6.96c0,0.77-0.04,1.51-0.11,2.23l-0.41,0.41
		c-1.69,0.37-3.96,0.62-6.81,0.74c-2.85,0.12-4.74,0.19-5.66,0.19h-11.94c0.05,5.13,1.34,8.92,3.87,11.35
		c2.53,2.43,5.63,3.65,9.3,3.65c1.74,0,3.4-0.3,5-0.89c1.6-0.59,3.29-1.43,5.08-2.49L172.49,67.1z M148.64,51.89
		c0.45,0.07,2.16,0.16,5.15,0.26c2.99,0.1,5.2,0.15,6.64,0.15c3.45,0,5.54-0.06,6.29-0.19c0.02-0.6,0.04-1.05,0.04-1.38
		c0-3.84-0.78-6.7-2.34-8.58c-1.56-1.87-3.7-2.81-6.4-2.81c-2.95,0-5.25,1.05-6.9,3.16C149.47,44.62,148.64,47.74,148.64,51.89z"/>
	<path class="st2" d="M178.63,55.53c0-2.95,0.61-5.8,1.82-8.54c1.21-2.74,3.33-5.11,6.34-7.11c3.01-2,6.59-3,10.73-3
		c5.21,0,9.45,1.64,12.72,4.93c3.27,3.29,4.91,7.51,4.91,12.67c0,5.68-1.88,10.36-5.64,14.03c-3.76,3.67-8.29,5.51-13.6,5.51
		c-3.47,0-6.57-0.94-9.3-2.81c-2.73-1.87-4.74-4.16-6.04-6.86C179.28,61.65,178.63,58.71,178.63,55.53z M185.66,52.97
		c0,3.47,0.45,6.58,1.34,9.32c0.89,2.74,2.31,4.94,4.24,6.6c1.93,1.66,4.14,2.49,6.62,2.49c2.93,0,5.34-1.16,7.25-3.48
		c1.91-2.32,2.86-5.81,2.86-10.47c0-5.28-1.04-9.61-3.11-12.98c-2.07-3.37-5.05-5.06-8.95-5.06c-3.22,0-5.74,1.17-7.55,3.5
		C186.56,45.21,185.66,48.57,185.66,52.97z"/>
	<path class="st2" d="M231.98,37.12l0.71,0.48c-0.15,1.44-0.26,3.99-0.34,7.66l2.79-3.53c0.92-1.17,1.73-2.06,2.44-2.7
		c0.71-0.63,1.53-1.12,2.47-1.47c0.94-0.35,1.91-0.52,2.9-0.52c1.09,0,2.12,0.22,3.09,0.67l0.26,0.52c-0.4,3.3-0.62,6.2-0.67,8.71
		h-1.67c-0.99-2.28-2.59-3.42-4.8-3.42c-1.54,0-2.88,0.49-4.02,1.47c-1.14,0.98-1.9,2.21-2.29,3.68c-0.38,1.48-0.58,3.34-0.58,5.6
		v4.13c0,0.74,0.05,2.57,0.15,5.47c0.1,2.9,0.2,4.58,0.32,5.02c0.11,0.45,0.29,0.78,0.52,0.99c0.24,0.21,0.55,0.35,0.93,0.43
		c0.38,0.07,2.15,0.2,5.3,0.37l0.33,0.3v1.56l-0.33,0.33c-3.3-0.2-6.75-0.3-10.34-0.3c-2.85,0-5.83,0.1-8.93,0.3l-0.34-0.33v-1.56
		l0.34-0.3c2.41-0.15,3.76-0.26,4.07-0.34c0.31-0.07,0.58-0.23,0.82-0.46c0.24-0.24,0.4-0.6,0.48-1.08c0.09-0.48,0.19-2.08,0.3-4.8
		c0.11-2.72,0.17-4.77,0.17-6.16v-7.33c0-0.99-0.05-2.34-0.15-4.06c-0.1-1.71-0.18-2.77-0.24-3.16c-0.06-0.4-0.25-0.69-0.58-0.87
		c-0.32-0.19-0.97-0.28-1.94-0.28l-3.12-0.04l-0.34-0.3v-1.6l0.3-0.3C224.74,39.34,228.73,38.41,231.98,37.12z"/>
	<path class="st2" d="M255.68,47.35l-1.45-0.37l-0.3-0.37v-4.61c4.41-3.27,8.71-4.91,12.87-4.91c2.85,0,5.22,0.53,7.11,1.6
		c1.88,1.07,3.25,2.4,4.09,4c0.84,1.6,1.27,3.47,1.27,5.6l-0.19,7.48v11.09c0,1.51,0.1,2.43,0.32,2.75
		c0.21,0.32,0.45,0.54,0.72,0.65c0.27,0.11,0.78,0.2,1.53,0.28l2.12,0.19l0.3,0.34v1.49l-0.3,0.3c-1.81-0.15-3.5-0.22-5.06-0.22
		c-1.49,0-3.27,0.07-5.36,0.22l-0.56-0.52l0.15-5.99l-8.11,6.33c-1.36,0.57-2.85,0.85-4.46,0.85c-1.98,0-3.69-0.36-5.12-1.08
		c-1.43-0.72-2.52-1.72-3.27-3.01c-0.76-1.29-1.13-2.85-1.13-4.69c0-3.65,1.14-6.49,3.42-8.54c2.28-2.05,8.51-3.79,18.68-5.23
		c0-3.67-0.82-6.26-2.46-7.76c-1.64-1.5-3.83-2.25-6.58-2.25c-1.44,0-2.75,0.21-3.92,0.63c-1.18,0.42-1.85,0.76-2.03,1.02
		c-0.17,0.26-0.84,1.78-2.01,4.56L255.68,47.35z M272.94,53.23c-6.94,1.17-11.27,2.42-12.98,3.76c-1.71,1.34-2.57,3.41-2.57,6.21
		c0,3.87,1.92,5.8,5.77,5.8c3.3,0,6.56-1.91,9.78-5.73V53.23z"/>
</g>
</svg>
