<svg width="100" height="100" viewBox="0 0 100 100" fill="none" xmlns="http://www.w3.org/2000/svg">
<path d="M66.5917 73.5742C64.2672 75.7141 61.5495 77.3795 58.5904 78.4774L58.4391 78.5322C52.9917 80.5026 47.0269 80.4885 41.5888 78.4922C32.7998 75.2125 26.4495 66.9253 26 57.0968V23.6468C26.0003 22.6798 26.3834 21.7525 27.065 21.0688C27.7467 20.385 28.6711 20.0008 29.6352 20.0005H38.6448C39.6088 20.0008 40.5333 20.385 41.2149 21.0688C41.8966 21.7525 42.2797 22.6798 42.28 23.6468V57.8417C42.2795 58.7867 42.4485 59.7242 42.7789 60.6093V60.6146C43.6191 63.8785 50.2319 74.396 66.5917 73.5742Z" fill="#2D458A"/>
<path d="M73.9996 39.3669V57.0549C74.0149 60.9578 72.9773 64.7923 70.9967 68.1518C69.7984 70.1635 68.3145 71.9895 66.5917 73.5723C50.2319 74.3941 43.6191 63.8797 42.7788 60.6137V60.6085C43.8543 63.4846 46.5547 65.5812 49.7781 65.6655C49.8517 65.6655 49.9252 65.6655 49.9998 65.6655C50.0743 65.6655 50.1479 65.6655 50.2214 65.6655C50.8755 65.649 51.5247 65.5477 52.1529 65.3642C59.0609 65.5643 66.7807 54.8709 73.9754 39.4365L73.9996 39.3669Z" fill="#9FD6FF"/>
<path d="M73.9734 39.4379C71.8202 57.8222 59.0588 65.5657 52.1509 65.3656C55.3838 64.4174 57.7176 61.3747 57.7176 57.8412V23.6463C57.7177 23.1673 57.8119 22.6931 57.9948 22.2506C58.1776 21.8081 58.4456 21.4061 58.7833 21.0675C59.1211 20.729 59.522 20.4604 59.9632 20.2772C60.4045 20.0941 60.8773 19.9999 61.3548 20H70.3645C71.3285 20.0003 72.2529 20.3845 72.9346 21.0683C73.6163 21.752 73.9993 22.6793 73.9996 23.6463" fill="#101D42"/>
</svg>
